<?xml version="1.0" encoding="UTF-8" standalone="no"?>
<!DOCTYPE svg PUBLIC "-//W3C//DTD SVG 1.1//EN" "http://www.w3.org/Graphics/SVG/1.1/DTD/svg11.dtd">
<svg width="100%" height="100%" viewBox="0 0 128 128" version="1.1" xmlns="http://www.w3.org/2000/svg" xmlns:xlink="http://www.w3.org/1999/xlink" xml:space="preserve" xmlns:serif="http://www.serif.com/" style="fill-rule:evenodd;clip-rule:evenodd;stroke-linejoin:round;stroke-miterlimit:2;">
    <g>
        <circle cx="64" cy="64" r="64" style="fill:url(#_Linear1);"/>
    </g>
    <g transform="matrix(1.13215,0,0,1.13215,-8.45755,-8.45755)">
        <g>
            <path d="M82.333,104L45.667,104C33.72,104 24,94.281 24,82.333L24,45.667C24,33.719 33.72,24 45.667,24L82.333,24C94.281,24 104,33.719 104,45.667L104,82.334C104,94.281 94.281,104 82.333,104ZM45.667,30.667C37.396,30.667 30.667,37.396 30.667,45.667L30.667,82.334C30.667,90.605 37.396,97.334 45.667,97.334L82.333,97.334C90.604,97.334 97.333,90.605 97.333,82.334L97.333,45.667C97.333,37.396 90.604,30.667 82.333,30.667L45.667,30.667Z" style="fill:white;fill-rule:nonzero;"/>
        </g>
        <g>
            <path d="M64,84C52.972,84 44,75.027 44,64C44,52.971 52.972,44 64,44C75.028,44 84,52.971 84,64C84,75.027 75.028,84 64,84ZM64,50.667C56.648,50.667 50.667,56.648 50.667,64C50.667,71.353 56.648,77.333 64,77.333C71.352,77.333 77.333,71.353 77.333,64C77.333,56.648 71.353,50.667 64,50.667Z" style="fill:white;fill-rule:nonzero;"/>
        </g>
        <g>
            <circle cx="85.25" cy="42.75" r="4.583" style="fill:white;"/>
        </g>
    </g>
    <defs>
        <linearGradient id="_Linear1" x1="0" y1="0" x2="1" y2="0" gradientUnits="userSpaceOnUse" gradientTransform="matrix(73.4239,-104.86,104.86,73.4239,27.2886,116.431)"><stop offset="0" style="stop-color:rgb(255,185,0);stop-opacity:1"/><stop offset="1" style="stop-color:rgb(145,0,235);stop-opacity:1"/></linearGradient>
    </defs>
</svg>
