<?xml version="1.0" encoding="UTF-8" standalone="no"?>
<!DOCTYPE svg PUBLIC "-//W3C//DTD SVG 1.1//EN" "http://www.w3.org/Graphics/SVG/1.1/DTD/svg11.dtd">
<svg width="100%" height="100%" viewBox="0 0 2072 1684" version="1.1" xmlns="http://www.w3.org/2000/svg" xmlns:xlink="http://www.w3.org/1999/xlink" xml:space="preserve" xmlns:serif="http://www.serif.com/" style="fill-rule:evenodd;clip-rule:evenodd;stroke-linejoin:round;stroke-miterlimit:2;">
    <g transform="matrix(1.11721,0,0,1.11721,-415.754,-197.382)">
        <path d="M955.204,1684C1654.86,1684 2037.48,1104.15 2037.48,601.318C2037.48,584.85 2037.15,568.458 2036.4,552.134C2110.85,498.245 2175.11,431.518 2226.15,355.089C2157.99,385.401 2084.65,405.803 2007.71,415.001C2086.24,367.894 2146.53,293.368 2174.98,204.533C2100.31,248.844 2018.62,280.082 1933.44,296.898C1864.02,222.934 1765.2,176.674 1655.78,176.674C1445.72,176.674 1275.38,347.085 1275.38,557.142C1275.38,587.006 1278.72,616.045 1285.24,643.908C969.101,627.994 688.769,476.575 501.156,246.335C467.367,304.402 449.591,370.411 449.65,437.592C449.65,569.611 516.802,686.154 618.923,754.338C558.52,752.493 499.434,736.169 446.651,706.744C446.594,708.342 446.594,709.898 446.594,711.605C446.594,895.887 577.709,1049.75 751.76,1084.62C719.071,1093.52 685.339,1098.02 651.459,1098C626.991,1098 603.145,1095.6 579.97,1091.15C628.397,1242.34 768.819,1352.36 935.307,1355.44C805.116,1457.52 641.115,1518.32 462.87,1518.32C432.548,1518.34 402.251,1516.58 372.136,1513.05C540.482,1620.99 740.376,1683.97 955.223,1683.97" style="fill:rgb(29,161,242);fill-rule:nonzero;"/>
    </g>
</svg>
