<?xml version="1.0" encoding="UTF-8" standalone="no"?>
<!DOCTYPE svg PUBLIC "-//W3C//DTD SVG 1.1//EN" "http://www.w3.org/Graphics/SVG/1.1/DTD/svg11.dtd">
<svg width="100%" height="100%" viewBox="0 0 240 240" version="1.1" xmlns="http://www.w3.org/2000/svg" xmlns:xlink="http://www.w3.org/1999/xlink" xml:space="preserve" xmlns:serif="http://www.serif.com/" style="fill-rule:evenodd;clip-rule:evenodd;stroke-linejoin:round;stroke-miterlimit:2;">
    <g transform="matrix(1.2,0,0,1.2,-24,-24)">
        <path d="M120,20C65,20 20,65 20,120C20,175 65,220 120,220C175,220 220,175 220,120C220,65 175,20 120,20Z" style="fill:rgb(3,169,244);fill-rule:nonzero;"/>
    </g>
    <g transform="matrix(1.2,0,0,1.2,-24,-24)">
        <path d="M180,85.5C175.5,87.5 170,89.5 165,90C170,87 178,80.5 180,75C175,78 166.5,81 161,82C156.5,77 150,75 143,75C129.5,75 120,86.5 120,100L120,110C100,110 80.5,95 68.5,80C66.5,83.5 65,88 65,92.5C65,101.5 73.5,111 80,115C76,115 68.5,112 65,110L65,110.5C65,122.5 73.5,130.5 84.5,132.5C82.5,133 80,135 70.5,135C73.5,144.5 89.5,150 100,150C91.5,156.5 76.5,160 65,160L60,160C71,167 86,170 100,170C145.5,170 170,135.5 170,103L170,97.5C175,94 176.5,90.5 180,85.5" style="fill:white;fill-rule:nonzero;"/>
    </g>
</svg>
